<svg width="61" height="60" viewBox="0 0 61 60" fill="none" xmlns="http://www.w3.org/2000/svg">
<path d="M50.873 0H10.127C4.53399 0 0 4.53399 0 10.127V49.348C0 54.941 4.53399 59.475 10.127 59.475H50.873C56.466 59.475 61 54.941 61 49.348V10.127C61 4.53399 56.466 0 50.873 0Z" fill="#330000"/>
<path d="M29.5598 35.6921H20.1072L18.1838 41.6666C18.1576 41.7755 18.0942 41.872 18.0046 41.9392C17.9149 42.0065 17.8046 42.0403 17.6927 42.035H12.9049C12.632 42.035 12.5365 41.8848 12.6185 41.5846L20.8027 18.0143C20.8845 17.7689 20.9664 17.4893 21.0482 17.1755C21.1554 16.6294 21.2102 16.0747 21.2119 15.5183C21.2063 15.4794 21.2099 15.4397 21.2223 15.4024C21.2347 15.3651 21.2556 15.3312 21.2834 15.3034C21.3112 15.2756 21.3451 15.2546 21.3824 15.2422C21.4197 15.2297 21.4594 15.2261 21.4983 15.2317H28.0048C28.1954 15.2317 28.3045 15.3 28.3322 15.4366L37.6211 41.6256C37.7029 41.8988 37.6211 42.0353 37.3757 42.035H32.0558C31.9645 42.0449 31.8726 42.0214 31.7974 41.9687C31.7221 41.916 31.6685 41.8378 31.6467 41.7485L29.5598 35.6921ZM21.5802 30.5362H28.0458L27.9536 30.2319L27.8056 29.7501L27.7 29.4118L27.5316 28.879L27.1734 27.7574L26.8584 26.763L26.0404 24.1729C25.8368 23.5291 25.6414 22.8826 25.4542 22.2338L25.3046 21.7072L25.1297 21.0846L24.8628 20.1195L24.8128 19.9377H24.772C24.5672 20.9199 24.3179 21.8923 24.0248 22.8519L23.4176 24.8048L23.0836 25.8838L22.7464 26.9761C22.6856 27.1734 22.6248 27.3684 22.5641 27.5613L22.383 28.1327L22.2029 28.6907L22.0237 29.235L21.8455 29.7656C21.7864 29.9404 21.7273 30.1127 21.6684 30.2827L21.5802 30.5362ZM43.1449 19.5693C42.7276 19.586 42.3114 19.5145 41.9236 19.3593C41.5358 19.2042 41.1851 18.969 40.8944 18.6691C40.6046 18.356 40.3796 17.9888 40.2321 17.5885C40.0846 17.1882 40.0176 16.7628 40.0349 16.3366C40.0201 15.9146 40.0944 15.4942 40.253 15.1029C40.4117 14.7117 40.6511 14.3582 40.9556 14.0657C41.543 13.5019 42.3252 13.1863 43.1395 13.1848L43.2267 13.1858C44.2089 13.1858 44.9796 13.479 45.5389 14.0655C45.8212 14.3703 46.0405 14.7278 46.1845 15.1175C46.3284 15.5072 46.3941 15.9215 46.3777 16.3366C46.395 16.7645 46.3261 17.1916 46.1749 17.5924C46.0238 17.9931 45.7936 18.3594 45.498 18.6693C45.1996 18.9633 44.8455 19.1947 44.4564 19.3498C44.0673 19.5049 43.6512 19.5806 43.2324 19.5724L43.1449 19.5693ZM40.3213 41.6256V22.0656C40.3211 21.82 40.4303 21.6972 40.6487 21.6972H45.6822C45.9003 21.6972 46.0094 21.82 46.0096 22.0656V41.6256C46.0096 41.8988 45.9004 42.0353 45.6822 42.035H40.6897C40.4571 42.035 40.3347 41.9125 40.3225 41.6675L40.3213 41.6256Z" fill="#FF9A00"/>
</svg>
