<svg width="32" height="41" viewBox="0 0 32 41" fill="none" xmlns="http://www.w3.org/2000/svg">
<path d="M8.01914 10.9423H13.4191M8.01914 20.6346H24.2191M8.01914 26.1731H24.2191M8.01914 31.7115H13.4191M5.31914 38.6346H26.9191C27.6352 38.6346 28.322 38.3429 28.8283 37.8235C29.3347 37.3042 29.6191 36.5998 29.6191 35.8654V5.40384C29.6191 4.6694 29.3347 3.96503 28.8283 3.4457C28.322 2.92637 27.6352 2.63461 26.9191 2.63461H5.31914C4.60306 2.63461 3.9163 2.92637 3.40995 3.4457C2.9036 3.96503 2.61914 4.6694 2.61914 5.40384V35.8654C2.61914 36.5998 2.9036 37.3042 3.40995 37.8235C3.9163 38.3429 4.60306 38.6346 5.31914 38.6346Z" stroke="#FEF0D4" stroke-width="4" stroke-linecap="round" stroke-linejoin="round"/>
</svg>
