<svg width="61" height="60" viewBox="0 0 61 60" fill="none" xmlns="http://www.w3.org/2000/svg">
<path d="M46.7031 0H14.2969C6.40093 0 0 6.24143 0 13.9406V45.5394C0 53.2386 6.40093 59.48 14.2969 59.48H46.7031C54.5991 59.48 61 53.2386 61 45.5394V13.9406C61 6.24143 54.5991 0 46.7031 0Z" fill="#242938"/>
<mask id="mask0_55_188" style="mask-type:luminance" maskUnits="userSpaceOnUse" x="14" y="6" width="33" height="47">
<path d="M14.5352 6.50562H46.3123V52.9744H14.5352V6.50562Z" fill="white"/>
</mask>
<g mask="url(#mask0_55_188)">
<path d="M22.4812 52.9744C26.8656 52.9744 30.4238 49.5048 30.4238 45.2297V37.4847H22.4812C18.0968 37.4847 14.5383 40.9545 14.5383 45.2297C14.5383 49.5048 18.0968 52.9744 22.4812 52.9744Z" fill="#0ACF83"/>
<path d="M14.5383 29.74C14.5383 25.4649 18.0968 21.9953 22.4812 21.9953H30.4238V37.4847H22.4812C18.0968 37.4847 14.5383 34.0151 14.5383 29.74Z" fill="#A259FF"/>
<path d="M14.5383 14.2503C14.5383 9.9752 18.0968 6.50562 22.4812 6.50562H30.4238V21.9953H22.4812C18.0968 21.9953 14.5383 18.5255 14.5383 14.2503Z" fill="#F24E1E"/>
<path d="M30.4238 6.50562H38.3665C42.7508 6.50562 46.3093 9.9752 46.3093 14.2503C46.3093 18.5255 42.7508 21.9953 38.3665 21.9953H30.4238V6.50562Z" fill="#FF7262"/>
<path d="M46.3093 29.74C46.3093 34.0151 42.7508 37.4847 38.3665 37.4847C33.9821 37.4847 30.4238 34.0151 30.4238 29.74C30.4238 25.4649 33.9821 21.9953 38.3665 21.9953C42.7508 21.9953 46.3093 25.4649 46.3093 29.74Z" fill="#1ABCFE"/>
</g>
</svg>
