<svg width="61" height="60" viewBox="0 0 61 60" fill="none" xmlns="http://www.w3.org/2000/svg">
<path d="M50.873 0H10.127C4.53399 0 0 4.53437 0 10.1278V49.3522C0 54.9456 4.53399 59.48 10.127 59.48H50.873C56.466 59.48 61 54.9456 61 49.3522V10.1278C61 4.53437 56.466 0 50.873 0Z" fill="#49021F"/>
<path d="M22.1529 15.5604V41.6291C22.1529 41.902 22.0301 42.0385 21.7845 42.0385H16.833C16.6144 42.0385 16.5054 41.902 16.5059 41.6291V15.5604C16.5059 15.3422 16.6286 15.2331 16.874 15.2329H21.8255C21.8671 15.227 21.9095 15.2303 21.9498 15.2424C21.9901 15.2546 22.0272 15.2754 22.0586 15.3033C22.09 15.3313 22.1149 15.3658 22.1317 15.4044C22.1484 15.4429 22.1565 15.4847 22.1555 15.5268L22.1529 15.5604ZM37.066 42.445L36.8024 42.4477C34.919 42.4764 33.0528 42.085 31.3396 41.3019C29.7435 40.5631 28.4094 39.3572 27.5135 37.8437C26.6084 36.3401 26.1448 34.4663 26.1229 32.2221L26.1222 32.0529C26.1068 30.1747 26.5868 28.3255 27.5137 26.6919C28.4429 25.0725 29.798 23.7387 31.4318 22.8355L31.5648 22.763C33.3376 21.7809 35.4791 21.2898 37.9893 21.2898L38.0422 21.2901L38.1597 21.2927L38.2926 21.2979L38.4411 21.3056L38.6048 21.3158L38.7837 21.3289L39.1881 21.362L39.2987 21.3716V13.3098C39.2987 13.119 39.3805 13.0235 39.5441 13.0232H44.7003C44.7336 13.0184 44.7676 13.0214 44.7996 13.0321C44.8315 13.0427 44.8605 13.0607 44.8844 13.0845C44.9082 13.1083 44.9261 13.1373 44.9368 13.1693C44.9474 13.2013 44.9505 13.2353 44.9457 13.2686V37.455C44.9473 37.9603 44.9678 38.4654 45.0072 38.9692L45.0458 39.4968L45.0798 39.9879L45.1094 40.4423C45.1144 40.5274 45.0937 40.6119 45.0499 40.685C45.0061 40.758 44.9413 40.8162 44.864 40.8517C43.5338 41.4065 42.1483 41.8179 40.731 42.0792C39.5216 42.3027 38.2958 42.425 37.0662 42.445M39.2989 37.373V26.2007C39.0778 26.1408 38.8519 26.0998 38.6238 26.078C38.3451 26.0499 38.065 26.0362 37.7849 26.037C36.7917 26.0273 35.8105 26.2515 34.9205 26.6919C34.0537 27.1231 33.3135 27.7718 32.7721 28.5745C32.2126 29.3928 31.933 30.4705 31.9331 31.8075C31.9133 32.6995 32.059 33.5875 32.3628 34.4264C32.6101 35.1025 33.001 35.7169 33.5087 36.2273C33.9946 36.6969 34.583 37.0471 35.2274 37.2503C35.908 37.4706 36.6194 37.5812 37.3347 37.578C37.7165 37.578 38.0711 37.5642 38.3987 37.5367C38.66 37.5171 38.919 37.474 39.1726 37.4081L39.2989 37.373Z" fill="#FF3366"/>
</svg>
