<svg width="38" height="37" viewBox="0 0 38 37" fill="none" xmlns="http://www.w3.org/2000/svg">
<path d="M31.3406 0C30.5175 0.00199322 29.7029 0.166953 28.9439 0.485362C28.1849 0.803771 27.4964 1.26933 26.9182 1.85517L2.85343 25.9192L2.75908 26.3955L1.0942 34.7659L0.619385 37L2.85496 36.5252L11.225 34.8602L11.6998 34.7644L35.7646 10.7004C36.3519 10.1231 36.8185 9.43472 37.1369 8.67526C37.4554 7.91581 37.6194 7.10053 37.6194 6.277C37.6194 5.45348 37.4554 4.6382 37.1369 3.87875C36.8185 3.11929 36.3519 2.43087 35.7646 1.85365C35.1861 1.2679 34.4973 0.802519 33.738 0.484367C32.9787 0.166216 32.1639 0.00159337 31.3406 0ZM31.3406 2.90071C32.1076 2.90071 32.8807 3.25074 33.6234 3.99494C35.1041 5.47421 35.1041 7.0798 33.6234 8.56059L32.5307 9.60612L28.0108 5.08765L29.0579 3.99494C29.802 3.25074 30.5736 2.90071 31.3406 2.90071ZM25.8727 7.22894L30.3895 11.7474L11.9859 30.15C10.9924 28.2061 9.41067 26.6253 7.46611 25.6331L25.8727 7.22894ZM5.51816 28.1076C6.41884 28.47 7.23699 29.0107 7.92348 29.6972C8.60996 30.3837 9.15062 31.2019 9.51297 32.1026L4.51832 33.1009L5.51816 28.1076Z" fill="#FEF0D4"/>
</svg>
