<svg width="58" height="58" viewBox="0 0 58 58" fill="none" xmlns="http://www.w3.org/2000/svg">
<path d="M16.82 0H41.18C50.46 0 58 7.54 58 16.82V41.18C58 45.6409 56.2279 49.9192 53.0735 53.0735C49.9192 56.2279 45.6409 58 41.18 58H16.82C7.54 58 0 50.46 0 41.18V16.82C0 12.3591 1.7721 8.08083 4.92646 4.92646C8.08083 1.7721 12.3591 0 16.82 0ZM16.24 5.8C13.4711 5.8 10.8157 6.89993 8.85781 8.85781C6.89993 10.8157 5.8 13.4711 5.8 16.24V41.76C5.8 47.531 10.469 52.2 16.24 52.2H41.76C44.5289 52.2 47.1843 51.1001 49.1422 49.1422C51.1001 47.1843 52.2 44.5289 52.2 41.76V16.24C52.2 10.469 47.531 5.8 41.76 5.8H16.24ZM44.225 10.15C45.1864 10.15 46.1084 10.5319 46.7883 11.2117C47.4681 11.8916 47.85 12.8136 47.85 13.775C47.85 14.7364 47.4681 15.6584 46.7883 16.3383C46.1084 17.0181 45.1864 17.4 44.225 17.4C43.2636 17.4 42.3416 17.0181 41.6617 16.3383C40.9819 15.6584 40.6 14.7364 40.6 13.775C40.6 12.8136 40.9819 11.8916 41.6617 11.2117C42.3416 10.5319 43.2636 10.15 44.225 10.15ZM29 14.5C32.8456 14.5 36.5338 16.0277 39.253 18.747C41.9723 21.4662 43.5 25.1544 43.5 29C43.5 32.8456 41.9723 36.5338 39.253 39.253C36.5338 41.9723 32.8456 43.5 29 43.5C25.1544 43.5 21.4662 41.9723 18.747 39.253C16.0277 36.5338 14.5 32.8456 14.5 29C14.5 25.1544 16.0277 21.4662 18.747 18.747C21.4662 16.0277 25.1544 14.5 29 14.5ZM29 20.3C26.6926 20.3 24.4797 21.2166 22.8482 22.8482C21.2166 24.4797 20.3 26.6926 20.3 29C20.3 31.3074 21.2166 33.5203 22.8482 35.1518C24.4797 36.7834 26.6926 37.7 29 37.7C31.3074 37.7 33.5203 36.7834 35.1518 35.1518C36.7834 33.5203 37.7 31.3074 37.7 29C37.7 26.6926 36.7834 24.4797 35.1518 22.8482C33.5203 21.2166 31.3074 20.3 29 20.3Z" fill="#FEF0D4"/>
</svg>
