<svg width="50" height="50" viewBox="0 0 50 50" fill="none" xmlns="http://www.w3.org/2000/svg">
<path d="M41.5152 0C40.4029 0.00269354 39.3021 0.225612 38.2764 0.655895C37.2506 1.08618 36.3203 1.71531 35.5389 2.50699L3.01899 35.0259L2.89148 35.6696L0.641637 46.9809L0 50L3.02104 49.3583L14.332 47.1084L14.9736 46.9789L47.4935 14.4599C48.2872 13.6799 48.9177 12.7496 49.348 11.7233C49.7784 10.697 50 9.59531 50 8.48244C50 7.36957 49.7784 6.26784 49.348 5.24155C48.9177 4.21526 48.2872 3.28496 47.4935 2.50494C46.7117 1.71338 45.7809 1.08448 44.7549 0.65455C43.7288 0.224616 42.6277 0.0021532 41.5152 0ZM41.5152 3.91987C42.5517 3.91987 43.5964 4.39289 44.6 5.39857C46.601 7.39758 46.601 9.56729 44.6 11.5684L43.1234 12.9812L37.0155 6.8752L38.4304 5.39857C39.436 4.39289 40.4787 3.91987 41.5152 3.91987ZM34.1261 9.76884L40.2298 15.8749L15.3602 40.7433C14.0176 38.1163 11.8801 35.9802 9.25233 34.6393L34.1261 9.76884ZM6.61997 37.9833C7.83711 38.473 8.94272 39.2036 9.8704 40.1313C10.7981 41.059 11.5287 42.1647 12.0184 43.3819L5.26883 44.731L6.61997 37.9833Z" fill="#FEF0D4"/>
</svg>
