<svg width="58" height="58" viewBox="0 0 58 58" fill="none" xmlns="http://www.w3.org/2000/svg">
<path d="M51.5556 0C53.2647 0 54.9039 0.678966 56.1125 1.88753C57.321 3.0961 58 4.73527 58 6.44444V51.5556C58 53.2647 57.321 54.9039 56.1125 56.1125C54.9039 57.321 53.2647 58 51.5556 58H6.44444C4.73527 58 3.0961 57.321 1.88753 56.1125C0.678966 54.9039 0 53.2647 0 51.5556V6.44444C0 4.73527 0.678966 3.0961 1.88753 1.88753C3.0961 0.678966 4.73527 0 6.44444 0H51.5556ZM49.9444 49.9444V32.8667C49.9444 30.0807 48.8377 27.4089 46.8678 25.4389C44.8978 23.4689 42.226 22.3622 39.44 22.3622C36.7011 22.3622 33.5111 24.0378 31.9644 26.5511V22.9744H22.9744V49.9444H31.9644V34.0589C31.9644 31.5778 33.9622 29.5478 36.4433 29.5478C37.6398 29.5478 38.7872 30.0231 39.6332 30.8691C40.4792 31.7151 40.9544 32.8625 40.9544 34.0589V49.9444H49.9444ZM12.5022 17.9156C13.9379 17.9156 15.3148 17.3452 16.33 16.33C17.3452 15.3148 17.9156 13.9379 17.9156 12.5022C17.9156 9.50556 15.4989 7.05667 12.5022 7.05667C11.058 7.05667 9.67287 7.63039 8.65163 8.65163C7.63039 9.67287 7.05667 11.058 7.05667 12.5022C7.05667 15.4989 9.50556 17.9156 12.5022 17.9156ZM16.9811 49.9444V22.9744H8.05556V49.9444H16.9811Z" fill="#FEF0D4"/>
</svg>
