<svg width="81" height="81" viewBox="0 0 81 81" fill="none" xmlns="http://www.w3.org/2000/svg">
<path d="M40.8272 7.67622C42.3196 7.07983 43.9461 6.90017 45.5327 7.15644C47.1194 7.41272 48.6066 8.09529 49.8355 9.13124L50.3944 9.64138L71.3473 30.5972C72.4853 31.734 73.2927 33.1588 73.6834 34.7193C74.074 36.2797 74.0331 37.917 73.5651 39.4559L73.3122 40.1657L62.8225 66.396C62.2343 67.8646 61.2641 69.1491 60.0124 70.1163C58.7606 71.0835 57.2729 71.6982 55.7036 71.8966L33.176 74.7135C32.5994 74.78 31.9873 74.8643 31.3575 74.9619L29.3882 75.2813L28.3592 75.4676L25.1523 76.0887L22.9568 76.5589L19.6524 77.2997L15.4166 78.3111L8.53278 80.0678L5.66749 80.8397C4.94441 81.0385 4.18298 81.0526 3.45302 80.8807C2.72306 80.7088 2.04793 80.3564 1.48953 79.8558C0.931129 79.3551 0.507329 78.7223 0.256985 78.0153C0.00664103 77.3083 -0.0622344 76.5497 0.0566721 75.8092L0.207476 75.1615L1.51593 70.2287L2.68688 65.5797L3.69816 61.3433L4.43888 58.0385L4.9046 55.8382L5.52999 52.6354L5.88483 50.6081L6.16869 48.7095L9.09608 25.2873C9.28009 23.8417 9.81749 22.4637 10.6607 21.2752C11.504 20.0868 12.6271 19.1245 13.9307 18.4735L14.6004 18.1674L40.8272 7.67622ZM44.1182 15.9139L17.896 26.4051L15.3057 47.1303L15.0928 48.8869C14.658 52.1504 14.0883 55.3944 13.3851 58.6107L12.6267 62.0974L27.2104 47.5118C26.7048 45.6253 26.8357 43.6246 27.5829 41.8201C28.3302 40.0156 29.6518 38.5082 31.343 37.5315C33.0342 36.5549 35.0003 36.1637 36.9365 36.4186C38.8726 36.6735 40.6706 37.5602 42.0514 38.9413C43.4323 40.3223 44.3189 42.1205 44.5738 44.0569C44.8286 45.9933 44.4375 47.9597 43.461 49.6511C42.4845 51.3425 40.9772 52.6644 39.173 53.4117C37.3687 54.159 35.3683 54.29 33.4821 53.7843L18.8984 68.37L20.6371 67.984L24.1145 67.2521C26.2814 66.8084 28.46 66.4238 30.6478 66.0987L54.5859 63.1L65.0757 36.8742L44.1182 15.9139ZM54.5992 1.30164C55.3624 0.537207 56.3782 0.0775655 57.4562 0.00896019C58.5341 -0.0596451 59.6 0.2675 60.4539 0.929014L60.8709 1.30164L79.686 20.1193C80.4899 20.9157 80.9591 21.9894 80.9974 23.1205C81.0358 24.2516 80.6405 25.3545 79.8924 26.2037C79.1442 27.0528 78.0999 27.5838 76.9731 27.6881C75.8464 27.7923 74.7224 27.4619 73.8312 26.7645L73.4143 26.3918L54.5992 7.57419C53.7677 6.74231 53.3005 5.61419 53.3005 4.43792C53.3005 3.26164 53.7677 2.13352 54.5992 1.30164Z" fill="#FEF0D4"/>
</svg>
