<svg width="42" height="41" viewBox="0 0 42 41" fill="none" xmlns="http://www.w3.org/2000/svg">
<path d="M21.285 3.88549C22.0404 3.58362 22.8637 3.49268 23.6668 3.6224C24.4699 3.75212 25.2227 4.09762 25.8448 4.62198L26.1277 4.8802L36.7335 15.4875C37.3095 16.0629 37.7182 16.7841 37.9159 17.5739C38.1136 18.3638 38.0929 19.1925 37.856 19.9715L37.7281 20.3308L32.4184 33.6078C32.1207 34.3512 31.6296 35.0014 30.996 35.491C30.3624 35.9806 29.6094 36.2917 28.815 36.3921L17.4122 37.8179C17.1203 37.8516 16.8105 37.8943 16.4917 37.9437L15.4949 38.1054L14.974 38.1997L13.3508 38.514L12.2395 38.752L10.5669 39.127L8.42283 39.639L4.93845 40.5281L3.48812 40.9188C3.12211 41.0195 2.73669 41.0266 2.36721 40.9396C1.99772 40.8526 1.65599 40.6742 1.37334 40.4208C1.0907 40.1674 0.876181 39.8471 0.749464 39.4892C0.622746 39.1314 0.587883 38.7474 0.648071 38.3726L0.724404 38.0447L1.38671 35.5479L1.97941 33.1947L2.49129 31.0503L2.86622 29.3775L3.10196 28.2638L3.41852 26.6426L3.59813 25.6165L3.74181 24.6554L5.22357 12.7997C5.31672 12.068 5.58873 11.3705 6.01556 10.7689C6.44239 10.1674 7.01087 9.68031 7.67073 9.35079L8.00974 9.19586L21.285 3.88549ZM22.9508 8.0552L9.67784 13.3656L8.36671 23.8561L8.25894 24.7452C8.03887 26.3971 7.7505 28.0392 7.39458 29.6672L7.01067 31.432L14.3925 24.0492C14.1366 23.0943 14.2029 22.0816 14.5811 21.1682C14.9593 20.2548 15.6283 19.4918 16.4844 18.9974C17.3404 18.5031 18.3356 18.3051 19.3156 18.4341C20.2956 18.5631 21.2057 19.012 21.9047 19.711C22.6036 20.4101 23.0524 21.3203 23.1814 22.3004C23.3104 23.2806 23.1124 24.2759 22.6181 25.1321C22.1239 25.9882 21.3609 26.6573 20.4477 27.0356C19.5344 27.4138 18.5219 27.4801 17.5671 27.2242L10.1852 34.607L11.0653 34.4117L12.8255 34.0412C13.9223 33.8166 15.0251 33.6219 16.1325 33.4574L28.2493 31.9395L33.5589 18.6647L22.9508 8.0552ZM28.256 0.658855C28.6423 0.271919 29.1565 0.0392616 29.7021 0.0045354C30.2478 -0.0301908 30.7873 0.135401 31.2195 0.470242L31.4306 0.658855L40.9543 10.1838C41.3612 10.587 41.5987 11.1304 41.6181 11.703C41.6375 12.2755 41.4374 12.8338 41.0587 13.2636C40.68 13.6934 40.1514 13.9622 39.5811 14.0149C39.0108 14.0677 38.4418 13.9005 37.9907 13.5474L37.7797 13.3588L28.256 3.83385C27.8351 3.41277 27.5987 2.84175 27.5987 2.24635C27.5987 1.65095 27.8351 1.07993 28.256 0.658855Z" fill="#FEF0D4"/>
</svg>
