<svg width="61" height="60" viewBox="0 0 61 60" fill="none" xmlns="http://www.w3.org/2000/svg">
<path d="M10.802 0H50.198C56.1708 0 61 4.82965 61 10.8029V48.6771C61 54.6503 56.1708 59.48 50.198 59.48H10.802C4.82925 59.48 0 54.6503 0 48.6771V10.8029C0 4.82965 4.82925 0 10.802 0Z" fill="#00005B"/>
<path d="M14.4875 41.7123V15.5563C14.4875 15.3783 14.5638 15.2768 14.7418 15.2768L15.1107 15.2761L15.3961 15.2737L15.5975 15.2699L15.8119 15.2644L16.0423 15.2563L16.165 15.2513C16.3938 15.2418 16.6261 15.2358 16.8632 15.2308L17.5912 15.2155C17.6739 15.2136 17.7574 15.2114 17.8416 15.2089L18.0966 15.2005C18.3253 15.1923 18.5598 15.1859 18.8 15.1815L19.537 15.1684L20.0471 15.1572L20.308 15.1495C20.8332 15.1328 21.3472 15.1271 21.8573 15.1252L22.6208 15.1243C24.705 15.1243 26.4333 15.3783 27.8568 15.9121C29.1327 16.3455 30.296 17.0575 31.2625 17.9965C32.0814 18.8184 32.7141 19.8066 33.118 20.8943C33.4993 21.9618 33.7025 23.0549 33.7025 24.1988C33.7025 26.3848 33.1942 28.1895 32.1775 29.613C31.1608 31.0364 29.7375 32.1039 28.0855 32.714C26.4147 33.3283 24.5778 33.5624 22.5746 33.5774H21.8481L21.5652 33.5745L21.3839 33.5702L21.2771 33.5657L21.1813 33.56L21.0958 33.5528C21.0409 33.5475 20.986 33.5434 20.9309 33.5404L20.807 33.535L20.6712 33.5314L20.4446 33.5283L20.003 33.5273V41.6868C20.0283 41.8648 19.9013 42.0173 19.7233 42.0428H14.7925C14.5893 42.0428 14.4875 41.941 14.4875 41.7123ZM20.0283 20.1825V28.7232L20.3271 28.7446C20.5575 28.7623 20.7885 28.7721 21.0196 28.7742H22.3668C23.358 28.7742 24.3493 28.6217 25.2896 28.3166C26.103 28.0879 26.8146 27.6048 27.3738 26.9693C27.9075 26.334 28.1618 25.4696 28.1618 24.3513C28.1857 23.5569 27.9828 22.7722 27.5771 22.0889C27.1632 21.4557 26.5856 20.9624 25.8895 20.6762L25.798 20.64C24.8575 20.2587 23.8408 20.1062 22.7988 20.1317L22.2112 20.1324L21.935 20.1341L21.6713 20.1376L21.4208 20.1434C21.2987 20.1465 21.1819 20.1512 21.0705 20.1572C21.0159 20.1545 20.9613 20.1522 20.9066 20.1505L20.7543 20.1472L20.6829 20.1467L20.548 20.1474L20.4255 20.1508L20.3688 20.1531L20.2647 20.1591L20.1732 20.1662L20.132 20.1701L20.0598 20.1784L20.0283 20.1825ZM37.2608 21.6568H41.7088C41.9487 21.6568 42.1437 21.8155 42.2287 22.0259L42.2425 22.0636C42.3188 22.2669 42.3696 22.4701 42.395 22.6989C42.4458 22.9532 42.4968 23.2327 42.5221 23.487L42.5435 23.7329C42.5602 23.9428 42.573 24.1661 42.573 24.4021C43.301 23.5522 44.1739 22.8382 45.1512 22.2933L45.2925 22.2161C46.4618 21.5551 47.8088 21.2248 49.1558 21.2248C49.3338 21.1993 49.4863 21.3263 49.5118 21.5043V26.5627C49.5118 26.766 49.3846 26.8423 49.105 26.8423C48.251 26.8184 47.3751 26.8835 46.5388 27.0574L46.36 27.0965C45.623 27.249 44.9113 27.4778 44.225 27.7828C43.7421 28.0116 43.2846 28.3166 42.9288 28.7232V41.6868C42.9288 41.941 42.8271 42.0428 42.5983 42.0428H37.5913C37.388 42.068 37.21 41.941 37.1846 41.7378V27.5541C37.1846 26.944 37.1846 26.3085 37.1593 25.6477L37.144 25.152L37.1236 24.1607C37.1197 23.9954 37.1147 23.8302 37.1083 23.665C37.1083 23.0802 37.0576 22.5211 37.0068 21.9363C36.9813 21.8093 37.0575 21.6823 37.1846 21.6568C37.1846 21.6351 37.222 21.632 37.2487 21.6473L37.2608 21.6568Z" fill="#9999FF"/>
</svg>
