<svg width="61" height="60" viewBox="0 0 61 60" fill="none" xmlns="http://www.w3.org/2000/svg">
<path d="M50.873 0H10.127C4.53399 0 0 4.53437 0 10.1278V49.3522C0 54.9456 4.53399 59.48 10.127 59.48H50.873C56.466 59.48 61 54.9456 61 49.3522V10.1278C61 4.53437 56.466 0 50.873 0Z" fill="#001E36"/>
<path d="M13.7356 41.7111V15.5603C13.7356 15.3695 13.8175 15.2741 13.9813 15.2739L14.2403 15.2732L14.683 15.2684L15.2982 15.2563L17.3594 15.2127L19.5694 15.1717C20.3467 15.1582 21.1173 15.1513 21.8812 15.1512C23.9543 15.1512 25.7003 15.4104 27.1191 15.9288C28.3992 16.3615 29.5666 17.0745 30.5361 18.0158C31.3581 18.8316 31.9933 19.816 32.398 20.9012C32.7807 21.9572 32.9746 23.0722 32.9711 24.1954C32.9711 26.3784 32.4663 28.1791 31.4568 29.5975C30.4696 30.9812 29.0925 32.0395 27.5013 32.6373L27.3648 32.6873C25.7033 33.3071 23.8633 33.5311 21.8453 33.5452L21.5317 33.5461L21.0663 33.5438L20.8316 33.5404L20.57 33.5342L20.4122 33.528L20.3164 33.523L20.0808 33.5144L19.7927 33.5085L19.359 33.5054L19.2625 33.5051V41.6701C19.2697 41.7201 19.2651 41.7711 19.2491 41.8191C19.2332 41.8671 19.2062 41.9107 19.1705 41.9464C19.1347 41.9822 19.0912 42.0091 19.0432 42.0251C18.9952 42.0411 18.9442 42.0457 18.8941 42.0385H14.0222C13.831 42.0386 13.7354 41.9295 13.7356 41.7111ZM19.2628 20.1848V28.7141C19.617 28.7416 19.9443 28.7552 20.2445 28.7551H21.5951C22.5262 28.7519 23.4519 28.6132 24.3432 28.3435L24.5209 28.288C25.3318 28.0474 26.0563 27.5785 26.608 26.9373C27.1208 26.3325 27.3864 25.4991 27.4048 24.4371L27.406 24.3182C27.4275 23.5265 27.2216 22.7454 26.8125 22.0674C26.3827 21.4116 25.7611 20.9042 25.0325 20.6145C24.0813 20.2446 23.0652 20.0706 22.0452 20.1031L21.5262 20.1045L21.1988 20.1074L20.8864 20.1114L20.4456 20.12L20.1239 20.1291L19.9569 20.1353L19.7336 20.1457L19.5435 20.1574L19.435 20.166L19.3414 20.1751L19.3002 20.1798L19.2628 20.1848ZM48.793 27.1632C48.0791 26.7965 47.3219 26.5209 46.5393 26.343L46.3582 26.3039C45.4972 26.1064 44.6182 25.9975 43.735 25.9791L43.5143 25.9765C42.9966 25.9624 42.4795 26.0245 41.9798 26.1607C41.6617 26.2317 41.379 26.4128 41.1815 26.6721C41.0481 26.8796 40.9771 27.1212 40.9771 27.3679C40.9846 27.6072 41.0708 27.8373 41.2225 28.0226C41.4397 28.2765 41.7008 28.4894 41.9934 28.651L42.082 28.6979C42.6655 29.012 43.2666 29.2921 43.8825 29.5367C45.2557 29.9968 46.5679 30.622 47.7903 31.3988C48.623 31.9244 49.3121 32.6487 49.7957 33.5066C50.202 34.3188 50.4056 35.2174 50.389 36.1255C50.4132 37.3248 50.0705 38.5029 49.4068 39.502C48.6961 40.5161 47.7088 41.3044 46.5627 41.773C45.3624 42.3005 43.8884 42.5731 42.1409 42.5909L41.9593 42.5918C40.8759 42.6026 39.7941 42.5078 38.7292 42.3087L38.5014 42.2644C37.6047 42.0999 36.7319 41.825 35.9029 41.4458C35.8195 41.4029 35.7491 41.3385 35.6987 41.2594C35.6484 41.1803 35.62 41.0892 35.6165 40.9954V36.5349C35.6116 36.4916 35.6185 36.4478 35.6366 36.4081C35.6546 36.3685 35.6831 36.3345 35.7189 36.3097C35.754 36.2898 35.7944 36.281 35.8346 36.2847C35.8748 36.2884 35.913 36.3042 35.9439 36.3302C36.9229 36.9075 37.9859 37.3286 39.0947 37.5784C40.072 37.8235 41.0745 37.954 42.082 37.9673C43.0366 37.9673 43.739 37.8445 44.1894 37.5989C44.3926 37.5057 44.5646 37.3556 44.6844 37.1668C44.8042 36.978 44.8668 36.7585 44.8647 36.5349C44.8647 36.1806 44.6601 35.8396 44.2508 35.5119C44.0793 35.3746 43.8333 35.2253 43.5129 35.0639L43.3597 34.9886L43.1962 34.9116L43.1104 34.8725L42.9308 34.7929L42.8371 34.7524L42.6417 34.6704L42.54 34.6287L42.3289 34.5441L42.2193 34.5012L41.9922 34.4138L41.7546 34.3249C40.4695 33.878 39.2512 33.2585 38.133 32.4833C37.3331 31.927 36.6744 31.1912 36.2098 30.3348C35.8075 29.5283 35.6041 28.6373 35.6165 27.7361C35.614 26.6533 35.9114 25.5909 36.4757 24.6668C37.1191 23.6492 38.0427 22.839 39.1357 22.3343C40.3358 21.7344 41.8362 21.4342 43.6368 21.4338C44.6914 21.4253 45.7451 21.5006 46.7878 21.659C47.5429 21.7548 48.281 21.9545 48.9814 22.2523C49.0942 22.2847 49.1849 22.3679 49.2269 22.4775C49.2548 22.5774 49.2683 22.6806 49.2679 22.7845V26.9178C49.2738 27.0155 49.2269 27.1091 49.1451 27.1632C49.0904 27.1904 49.0302 27.2046 48.9691 27.2046C48.908 27.2046 48.8477 27.1904 48.793 27.1632Z" fill="#31A8FF"/>
</svg>
