<svg width="59" height="39" viewBox="0 0 59 39" fill="none" xmlns="http://www.w3.org/2000/svg">
<path d="M48.9527 33.75C51.611 33.75 53.7619 31.6125 53.7619 29L53.786 5.25C53.786 2.6375 51.611 0.5 48.9527 0.5H10.2861C7.62772 0.5 5.45272 2.6375 5.45272 5.25V29C5.45272 31.6125 7.62772 33.75 10.2861 33.75H3.03605C1.70688 33.75 0.619385 34.8187 0.619385 36.125C0.619385 37.4312 1.70688 38.5 3.03605 38.5H56.2027C57.5319 38.5 58.6194 37.4312 58.6194 36.125C58.6194 34.8187 57.5319 33.75 56.2027 33.75H48.9527ZM12.7027 5.25H46.5361C47.8652 5.25 48.9527 6.31875 48.9527 7.625V26.625C48.9527 27.9312 47.8652 29 46.5361 29H12.7027C11.3736 29 10.2861 27.9312 10.2861 26.625V7.625C10.2861 6.31875 11.3736 5.25 12.7027 5.25Z" fill="#FEF0D4"/>
</svg>
