<svg width="43" height="60" viewBox="0 0 43 60" fill="none" xmlns="http://www.w3.org/2000/svg">
<path fill-rule="evenodd" clip-rule="evenodd" d="M37.1364 12V48C37.1364 49.5913 36.5186 51.1174 35.4189 52.2426C34.3193 53.3679 32.8279 54 31.2727 54H11.7273C10.1721 54 8.6807 53.3679 7.58106 52.2426C6.48141 51.1174 5.86364 49.5913 5.86364 48V12C5.86364 10.4087 6.48141 8.88258 7.58106 7.75736C8.6807 6.63214 10.1721 6 11.7273 6H31.2727C32.8279 6 34.3193 6.63214 35.4189 7.75736C36.5186 8.88258 37.1364 10.4087 37.1364 12ZM31.2727 0C34.383 0 37.3659 1.26428 39.5652 3.51472C41.7645 5.76515 43 8.8174 43 12V48C43 51.1826 41.7645 54.2348 39.5652 56.4853C37.3659 58.7357 34.383 60 31.2727 60H11.7273C8.61701 60 5.63413 58.7357 3.43484 56.4853C1.23555 54.2348 0 51.1826 0 48V12C0 8.8174 1.23555 5.76515 3.43484 3.51472C5.63413 1.26428 8.61701 0 11.7273 0H31.2727ZM14.6591 42C13.8815 42 13.1358 42.3161 12.586 42.8787C12.0362 43.4413 11.7273 44.2043 11.7273 45C11.7273 45.7957 12.0362 46.5587 12.586 47.1213C13.1358 47.6839 13.8815 48 14.6591 48H28.3409C29.1185 48 29.8642 47.6839 30.414 47.1213C30.9638 46.5587 31.2727 45.7957 31.2727 45C31.2727 44.2043 30.9638 43.4413 30.414 42.8787C29.8642 42.3161 29.1185 42 28.3409 42H14.6591Z" fill="#FEF0D4"/>
</svg>
