<svg width="30" height="41" viewBox="0 0 30 41" fill="none" xmlns="http://www.w3.org/2000/svg">
<path fill-rule="evenodd" clip-rule="evenodd" d="M25.6648 8.5V32.5C25.6648 33.5609 25.2482 34.5783 24.5066 35.3284C23.765 36.0786 22.7591 36.5 21.7103 36.5H8.52848C7.47967 36.5 6.47381 36.0786 5.73219 35.3284C4.99057 34.5783 4.57393 33.5609 4.57393 32.5V8.5C4.57393 7.43913 4.99057 6.42172 5.73219 5.67157C6.47381 4.92143 7.47967 4.5 8.52848 4.5H21.7103C22.7591 4.5 23.765 4.92143 24.5066 5.67157C25.2482 6.42172 25.6648 7.43913 25.6648 8.5ZM21.7103 0.5C23.8079 0.5 25.8196 1.34285 27.3029 2.84315C28.7861 4.34344 29.6194 6.37827 29.6194 8.5V32.5C29.6194 34.6217 28.7861 36.6566 27.3029 38.1569C25.8196 39.6571 23.8079 40.5 21.7103 40.5H8.52848C6.43085 40.5 4.41915 39.6571 2.9359 38.1569C1.45266 36.6566 0.619385 34.6217 0.619385 32.5V8.5C0.619385 6.37827 1.45266 4.34344 2.9359 2.84315C4.41915 1.34285 6.43085 0.5 8.52848 0.5H21.7103ZM10.5057 28.5C9.98134 28.5 9.47842 28.7107 9.10761 29.0858C8.7368 29.4609 8.52848 29.9696 8.52848 30.5C8.52848 31.0304 8.7368 31.5391 9.10761 31.9142C9.47842 32.2893 9.98134 32.5 10.5057 32.5H19.733C20.2574 32.5 20.7604 32.2893 21.1312 31.9142C21.502 31.5391 21.7103 31.0304 21.7103 30.5C21.7103 29.9696 21.502 29.4609 21.1312 29.0858C20.7604 28.7107 20.2574 28.5 19.733 28.5H10.5057Z" fill="#FEF0D4"/>
</svg>
