<svg width="22" height="22" viewBox="0 0 22 22" fill="none" xmlns="http://www.w3.org/2000/svg">
<path d="M12.7272 2.44375L14.4872 5.99275C14.7272 6.48675 15.3672 6.96075 15.9072 7.05075L19.0962 7.58575C21.1362 7.92875 21.6162 9.42075 20.1462 10.8927L17.6662 13.3927C17.2462 13.8157 17.0162 14.6328 17.1462 15.2178L17.8562 18.3127C18.4162 20.7627 17.1262 21.7098 14.9762 20.4298L11.9862 18.6448C11.4462 18.3228 10.5562 18.3228 10.0062 18.6448L7.01822 20.4298C4.87822 21.7098 3.57822 20.7517 4.13822 18.3127L4.84822 15.2178C4.97822 14.6328 4.74822 13.8157 4.32822 13.3927L1.84822 10.8927C0.389217 9.41975 0.859217 7.92875 2.89822 7.58575L6.08822 7.05075C6.61822 6.96075 7.25822 6.48675 7.49822 5.99275L9.25822 2.44375C10.2182 0.51875 11.7782 0.51875 12.7282 2.44375" stroke="#FEF0D4" stroke-width="1.5" stroke-linecap="round" stroke-linejoin="round"/>
</svg>
