<svg width="65" height="41" viewBox="0 0 65 41" fill="none" xmlns="http://www.w3.org/2000/svg">
<path fill-rule="evenodd" clip-rule="evenodd" d="M11.2861 0.5V5.83333H32.6194V8.5H8.61938C6.49765 8.5 4.46282 9.34285 2.96253 10.8431C1.46224 12.3434 0.619385 14.3783 0.619385 16.5L0.619385 32.5C0.619385 34.6217 1.46224 36.6566 2.96253 38.1569C4.46282 39.6571 6.49765 40.5 8.61938 40.5H40.6194C42.6263 40.5002 44.5601 39.7461 46.037 38.3873C47.5139 37.0284 48.4261 35.164 48.5927 33.164L64.6194 35.1667V13.8333L48.5927 15.836C48.4261 13.836 47.5139 11.9716 46.037 10.6127C44.5601 9.25388 42.6263 8.49976 40.6194 8.5H37.9527V3.16667C37.9527 2.45942 37.6718 1.78115 37.1717 1.28105C36.6716 0.780952 35.9933 0.5 35.2861 0.5H11.2861ZM48.6194 21.2093V27.7907L59.2861 29.124V19.876L48.6194 21.2093ZM43.2861 16.5C43.2861 15.7928 43.0051 15.1145 42.505 14.6144C42.0049 14.1143 41.3266 13.8333 40.6194 13.8333H8.61938C7.91214 13.8333 7.23386 14.1143 6.73377 14.6144C6.23367 15.1145 5.95272 15.7928 5.95272 16.5V32.5C5.95272 33.2072 6.23367 33.8855 6.73377 34.3856C7.23386 34.8857 7.91214 35.1667 8.61938 35.1667H40.6194C41.3266 35.1667 42.0049 34.8857 42.505 34.3856C43.0051 33.8855 43.2861 33.2072 43.2861 32.5V16.5Z" fill="#FEF0D4"/>
</svg>
