<svg width="58" height="58" viewBox="0 0 58 58" fill="none" xmlns="http://www.w3.org/2000/svg">
<path d="M49.5477 8.43915C46.8757 5.75354 43.6929 3.6242 40.1851 2.17531C36.6773 0.72643 32.9146 -0.0129923 29.1166 0.000172751C13.203 0.000172751 0.233166 12.9051 0.233166 28.7391C0.233166 33.8141 1.57387 38.7441 4.0804 43.094L0 58L15.3015 53.998C19.5276 56.289 24.2784 57.507 29.1166 57.507C45.0301 57.507 58 44.602 58 28.7681C58 21.0831 54.998 13.8621 49.5477 8.43915ZM29.1166 52.635C24.803 52.635 20.5769 51.475 16.8754 49.3L16.001 48.778L6.90754 51.156L9.32663 42.34L8.74372 41.4411C6.3472 37.6333 5.07468 33.2319 5.07136 28.7391C5.07136 15.5731 15.8553 4.84316 29.0874 4.84316C35.4995 4.84316 41.5327 7.33715 46.0503 11.8611C48.2871 14.0766 50.0598 16.7118 51.2656 19.614C52.4713 22.5163 53.0861 25.6277 53.0744 28.7681C53.1327 41.934 42.3487 52.635 29.1166 52.635ZM42.2904 34.7711C41.5618 34.4231 38.006 32.6831 37.3648 32.4221C36.6945 32.1901 36.2281 32.0741 35.7327 32.7701C35.2372 33.4951 33.8673 35.1191 33.4593 35.5831C33.0513 36.0761 32.6141 36.1341 31.8854 35.7571C31.1568 35.4091 28.8251 34.6261 26.0854 32.1901C23.9286 30.2761 22.5005 27.9271 22.0633 27.2021C21.6553 26.4771 22.005 26.1001 22.3839 25.7231C22.7045 25.4041 23.1126 24.8821 23.4623 24.4761C23.8121 24.0701 23.9578 23.7511 24.191 23.2871C24.4241 22.7941 24.3075 22.3881 24.1327 22.0401C23.9578 21.6921 22.5005 18.1541 21.9176 16.7041C21.3347 15.3121 20.7226 15.4861 20.2854 15.4571H18.8864C18.391 15.4571 17.6332 15.6311 16.9628 16.3561C16.3216 17.0811 14.4563 18.8211 14.4563 22.3591C14.4563 25.8971 17.0503 29.3191 17.4 29.7831C17.7497 30.2761 22.5005 37.5261 29.7286 40.6291C31.4482 41.3831 32.7889 41.8181 33.8382 42.1371C35.5578 42.688 37.1317 42.601 38.3849 42.427C39.7839 42.224 42.6693 40.6871 43.2523 39.0051C43.8643 37.3231 43.8643 35.9021 43.6603 35.5831C43.4563 35.2641 43.0191 35.1191 42.2904 34.7711Z" fill="#FEF0D4"/>
</svg>
